<svg xmlns="http://www.w3.org/2000/svg" style="display:none"><symbol id="icon-1" viewBox="0 0 20 20"> <path d="M18.9881 18.1931L14.1712 13.3762C15.5448 11.7966 16.2514 9.74529 16.1421 7.6548C16.0328 5.56432 15.1161 3.59794 13.5852 2.17016C12.0544 0.742392 10.0289 -0.035227 7.93592 0.00122609C5.8429 0.0376792 3.84579 0.885357 2.36557 2.36557C0.885357 3.84579 0.0376792 5.8429 0.00122609 7.93592C-0.035227 10.0289 0.742392 12.0544 2.17016 13.5852C3.59794 15.1161 5.56432 16.0328 7.6548 16.1421C9.74529 16.2514 11.7966 15.5448 13.3762 14.1712L18.1931 18.9881C18.2997 19.0874 18.4407 19.1415 18.5865 19.139C18.7322 19.1364 18.8712 19.0774 18.9743 18.9743C19.0774 18.8712 19.1364 18.7322 19.139 18.5865C19.1415 18.4407 19.0874 18.2997 18.9881 18.1931ZM1.15308 8.09058C1.15308 6.71847 1.55996 5.37718 2.32226 4.23631C3.08456 3.09545 4.16805 2.20625 5.43571 1.68117C6.70338 1.15608 8.09828 1.0187 9.44402 1.28638C10.7898 1.55407 12.0259 2.2148 12.9961 3.18503C13.9664 4.15525 14.6271 5.3914 14.8948 6.73714C15.1625 8.08289 15.0251 9.47778 14.5 10.7454C13.9749 12.0131 13.0857 13.0966 11.9448 13.8589C10.804 14.6212 9.46269 15.0281 8.09058 15.0281C6.25133 15.0258 4.48804 14.2942 3.18749 12.9937C1.88694 11.6931 1.15531 9.92983 1.15308 8.09058Z" fill="#1C1C1D"/> </symbol><symbol id="icon-2" viewBox="0 0 9 5"> <path d="M4.05124 4.69322C3.9545 4.69322 3.85899 4.67478 3.77169 4.63925C3.6844 4.60373 3.60754 4.55201 3.54675 4.4879L0.14161 0.896213C0.0352163 0.782079 -0.0139389 0.636756 0.0048475 0.49189C0.0236339 0.347024 0.10884 0.214348 0.241913 0.122753C0.374986 0.0311584 0.545146 -0.0119361 0.71534 0.00285379C0.885533 0.0176437 1.04198 0.08912 1.1506 0.201718L4.05124 3.26122L6.95188 0.201718C7.06051 0.0891202 7.21695 0.0176439 7.38715 0.00285404C7.55734 -0.0119358 7.7275 0.0311587 7.86057 0.122753C7.99364 0.214348 8.07885 0.347024 8.09764 0.49189C8.11642 0.636756 8.06727 0.782079 7.96088 0.896213L4.55574 4.4879C4.49494 4.55201 4.41808 4.60373 4.33079 4.63925C4.2435 4.67478 4.14798 4.69322 4.05124 4.69322Z" fill="black"/> </symbol><symbol id="icon-3" viewBox="0 0 14 14"><path d="M7.03831 7.03831L0.788307 13.2883C0.699448 13.3711 0.581919 13.4162 0.460481 13.414C0.339043 13.4119 0.223177 13.3627 0.137294 13.2768C0.0514105 13.1909 0.00221566 13.0751 7.30296e-05 12.9536C-0.00206961 12.8322 0.0430072 12.7147 0.125807 12.6258L6.04378 6.70706L0.125807 0.788307C0.0430072 0.699448 -0.00206961 0.581919 7.30296e-05 0.460481C0.00221566 0.339043 0.0514105 0.223177 0.137294 0.137294C0.223177 0.0514105 0.339043 0.00221566 0.460481 7.30296e-05C0.581919 -0.00206961 0.699448 0.0430072 0.788307 0.125807L7.03831 6.37581C7.12609 6.4637 7.17539 6.58284 7.17539 6.70706C7.17539 6.83128 7.12609 6.95042 7.03831 7.03831ZM13.2883 6.37581L7.03831 0.125807C6.94945 0.0430072 6.83192 -0.00206961 6.71048 7.30296e-05C6.58904 0.00221566 6.47318 0.0514105 6.38729 0.137294C6.30141 0.223177 6.25222 0.339043 6.25007 0.460481C6.24793 0.581919 6.29301 0.699448 6.37581 0.788307L12.2938 6.70706L6.37581 12.6258C6.32975 12.6687 6.29281 12.7205 6.26719 12.778C6.24157 12.8355 6.2278 12.8975 6.22669 12.9605C6.22558 13.0234 6.23715 13.0859 6.26073 13.1443C6.28431 13.2027 6.3194 13.2557 6.36391 13.3002C6.40842 13.3447 6.46144 13.3798 6.51981 13.4034C6.57818 13.427 6.64069 13.4385 6.70363 13.4374C6.76657 13.4363 6.82864 13.4225 6.88614 13.3969C6.94364 13.3713 6.99539 13.3344 7.03831 13.2883L13.2883 7.03831C13.3761 6.95042 13.4254 6.83128 13.4254 6.70706C13.4254 6.58284 13.3761 6.4637 13.2883 6.37581Z" fill="white"></path></symbol><symbol id="icon-4" viewBox="0 0 14 14"><path d="M13.111 0.5625V10.3125C13.111 10.4617 13.0517 10.6048 12.9462 10.7102C12.8407 10.8157 12.6977 10.875 12.5485 10.875C12.3993 10.875 12.2562 10.8157 12.1507 10.7102C12.0452 10.6048 11.986 10.4617 11.986 10.3125V1.92L0.945969 12.96C0.839337 13.0594 0.698303 13.1135 0.552577 13.1109C0.406851 13.1083 0.267812 13.0493 0.164752 12.9462C0.0616926 12.8432 0.0026588 12.7041 8.76355e-05 12.5584C-0.00248353 12.4127 0.0516087 12.2716 0.150969 12.165L11.191 1.125H2.79847C2.64928 1.125 2.50621 1.06574 2.40072 0.960247C2.29523 0.854758 2.23597 0.711684 2.23597 0.5625C2.23597 0.413316 2.29523 0.270242 2.40072 0.164752C2.50621 0.0592632 2.64928 0 2.79847 0H12.5485C12.6977 0 12.8407 0.0592632 12.9462 0.164752C13.0517 0.270242 13.111 0.413316 13.111 0.5625Z" fill="white"></path></symbol><symbol id="icon-5" viewBox="0 0 59 59"><path d="M2.24894 58.5H56.2234C56.8199 58.5 57.3919 58.2631 57.8137 57.8413C58.2354 57.4195 58.4724 56.8475 58.4724 56.2511C58.4724 55.6546 58.2354 55.0826 57.8137 54.6608C57.3919 54.2391 56.8199 54.0021 56.2234 54.0021H7.67899L57.8134 3.86657C58.0282 3.65911 58.1996 3.41095 58.3174 3.13657C58.4353 2.86219 58.4973 2.56709 58.4999 2.26848C58.5025 1.96986 58.4456 1.67373 58.3325 1.39734C58.2195 1.12096 58.0525 0.869858 57.8413 0.658699C57.6301 0.44754 57.379 0.280548 57.1027 0.167469C56.8263 0.05439 56.5301 -0.00251007 56.2315 8.39233e-05C55.9329 0.00267792 55.6378 0.0647202 55.3634 0.182583C55.089 0.300449 54.8409 0.471775 54.6334 0.686573L4.49787 50.8221V2.27657C4.49787 1.68011 4.26093 1.10809 3.83918 0.686333C3.41742 0.264572 2.84539 0.0276337 2.24894 0.0276337C1.65248 0.0276337 1.08045 0.264572 0.658695 0.686333C0.236935 1.10809 -3.8147e-06 1.68011 -3.8147e-06 2.27657V56.2511C-3.8147e-06 56.8475 0.236935 57.4195 0.658695 57.8413C1.08045 58.2631 1.65248 58.5 2.24894 58.5Z" fill="#1C1C1D"></path></symbol><symbol id="icon-6" viewBox="0 0 20 20"><path d="M0 0H20V20L9.9 10.1L0 0Z" fill="#1C1C1D"></path></symbol><symbol id="icon-7" viewBox="0 0 18 18"> <path d="M17.7908 16.1586C16.482 13.8959 14.465 12.2734 12.1112 11.5042C13.2755 10.8111 14.1801 9.75494 14.6861 8.49794C15.192 7.24095 15.2714 5.85262 14.912 4.54616C14.5525 3.2397 13.7742 2.08735 12.6964 1.26607C11.6187 0.444792 10.3011 0 8.94613 0C7.59112 0 6.27358 0.444792 5.19583 1.26607C4.11809 2.08735 3.33973 3.2397 2.98029 4.54616C2.62085 5.85262 2.70021 7.24095 3.20618 8.49794C3.71214 9.75494 4.61674 10.8111 5.78105 11.5042C3.42722 12.2725 1.41027 13.895 0.101438 16.1586C0.0534405 16.2368 0.0216044 16.3239 0.00780758 16.4147C-0.0059892 16.5055 -0.00146719 16.5981 0.0211068 16.6871C0.0436808 16.776 0.0838496 16.8596 0.139243 16.9328C0.194636 17.006 0.264132 17.0674 0.343631 17.1133C0.423129 17.1593 0.511019 17.1888 0.602116 17.2002C0.693213 17.2116 0.78567 17.2046 0.874034 17.1797C0.962398 17.1548 1.04488 17.1125 1.11661 17.0552C1.18834 16.9979 1.24786 16.9268 1.29167 16.8461C2.91073 14.048 5.77245 12.3773 8.94613 12.3773C12.1198 12.3773 14.9815 14.048 16.6006 16.8461C16.6444 16.9268 16.7039 16.9979 16.7756 17.0552C16.8474 17.1125 16.9299 17.1548 17.0182 17.1797C17.1066 17.2046 17.199 17.2116 17.2901 17.2002C17.3812 17.1888 17.4691 17.1593 17.5486 17.1133C17.6281 17.0674 17.6976 17.006 17.753 16.9328C17.8084 16.8596 17.8486 16.776 17.8711 16.6871C17.8937 16.5981 17.8982 16.5055 17.8844 16.4147C17.8706 16.3239 17.8388 16.2368 17.7908 16.1586ZM4.13363 6.18984C4.13363 5.23802 4.41587 4.30757 4.94468 3.51616C5.47348 2.72474 6.22509 2.10791 7.10446 1.74367C7.98383 1.37942 8.95146 1.28412 9.885 1.46981C10.8185 1.6555 11.676 2.11385 12.3491 2.78689C13.0221 3.45993 13.4805 4.31743 13.6662 5.25097C13.8518 6.1845 13.7565 7.15213 13.3923 8.0315C13.028 8.91087 12.4112 9.66248 11.6198 10.1913C10.8284 10.7201 9.89795 11.0023 8.94613 11.0023C7.67019 11.001 6.4469 10.4935 5.54468 9.59128C4.64246 8.68906 4.13499 7.46577 4.13363 6.18984Z" fill="#CAA05C"/> </symbol><symbol id="icon-8" viewBox="0 0 18 18"> <path d="M11.6875 7.5625C11.6875 7.74484 11.6151 7.9197 11.4861 8.04864C11.3572 8.17757 11.1823 8.25 11 8.25H5.5C5.31766 8.25 5.1428 8.17757 5.01386 8.04864C4.88493 7.9197 4.8125 7.74484 4.8125 7.5625C4.8125 7.38016 4.88493 7.2053 5.01386 7.07636C5.1428 6.94743 5.31766 6.875 5.5 6.875H11C11.1823 6.875 11.3572 6.94743 11.4861 7.07636C11.6151 7.2053 11.6875 7.38016 11.6875 7.5625ZM11 9.625H5.5C5.31766 9.625 5.1428 9.69743 5.01386 9.82636C4.88493 9.95529 4.8125 10.1302 4.8125 10.3125C4.8125 10.4948 4.88493 10.6697 5.01386 10.7986C5.1428 10.9276 5.31766 11 5.5 11H11C11.1823 11 11.3572 10.9276 11.4861 10.7986C11.6151 10.6697 11.6875 10.4948 11.6875 10.3125C11.6875 10.1302 11.6151 9.95529 11.4861 9.82636C11.3572 9.69743 11.1823 9.625 11 9.625ZM17.1875 8.59375C17.185 10.8722 16.2788 13.0566 14.6677 14.6677C13.0566 16.2788 10.8722 17.185 8.59375 17.1875H1.34664C0.989629 17.187 0.64737 17.045 0.394924 16.7926C0.142479 16.5401 0.000454793 16.1979 0 15.8409V8.59375C3.39628e-08 6.31455 0.90541 4.12869 2.51705 2.51705C4.12869 0.90541 6.31455 0 8.59375 0C10.873 0 13.0588 0.90541 14.6704 2.51705C16.2821 4.12869 17.1875 6.31455 17.1875 8.59375ZM15.8125 8.59375C15.8125 6.67922 15.052 4.8431 13.6982 3.48932C12.3444 2.13555 10.5083 1.375 8.59375 1.375C6.67922 1.375 4.8431 2.13555 3.48932 3.48932C2.13554 4.8431 1.375 6.67922 1.375 8.59375V15.8125H8.59375C10.5077 15.8105 12.3426 15.0493 13.6959 13.6959C15.0493 12.3426 15.8105 10.5077 15.8125 8.59375Z" fill="#CAA05C"/> </symbol><symbol id="icon-9" viewBox="0 0 12 12"> <path d="M11.2503 0.625V8.75C11.2503 8.91576 11.1845 9.07473 11.0673 9.19194C10.9501 9.30915 10.7911 9.375 10.6253 9.375C10.4596 9.375 10.3006 9.30915 10.1834 9.19194C10.0662 9.07473 10.0003 8.91576 10.0003 8.75V2.13359L1.06754 11.0672C0.95026 11.1845 0.7912 11.2503 0.625347 11.2503C0.459495 11.2503 0.300435 11.1845 0.18316 11.0672C0.0658846 10.9499 0 10.7909 0 10.625C0 10.4591 0.0658846 10.3001 0.18316 10.1828L9.11675 1.25H2.50035C2.33459 1.25 2.17562 1.18415 2.05841 1.06694C1.9412 0.949731 1.87535 0.79076 1.87535 0.625C1.87535 0.45924 1.9412 0.300269 2.05841 0.183058C2.17562 0.0658481 2.33459 0 2.50035 0H10.6253C10.7911 0 10.9501 0.0658481 11.0673 0.183058C11.1845 0.300269 11.2503 0.45924 11.2503 0.625Z" fill="#011109"/> </symbol><symbol id="icon-10" viewBox="0 0 14 8"> <path d="M13.2883 0.788307L7.03831 7.03831C6.95042 7.12609 6.83128 7.1754 6.70706 7.1754C6.58284 7.1754 6.4637 7.12609 6.37581 7.03831L0.125807 0.788307C0.0430072 0.699448 -0.00206961 0.58192 7.30296e-05 0.460481C0.00221566 0.339043 0.0514105 0.223177 0.137294 0.137294C0.223177 0.0514111 0.339043 0.00221566 0.460481 7.30287e-05C0.581919 -0.00206961 0.699448 0.0430078 0.788307 0.125808L6.70706 6.04378L12.6258 0.125808C12.7147 0.0430078 12.8322 -0.00206961 12.9536 7.30287e-05C13.0751 0.00221566 13.1909 0.0514111 13.2768 0.137294C13.3627 0.223177 13.4119 0.339043 13.414 0.460481C13.4162 0.58192 13.3711 0.699448 13.2883 0.788307Z" fill="#1C1C1D"/> </symbol><symbol id="icon-11" viewBox="0 0 12 12"> <path d="M11.2503 0.625V8.75C11.2503 8.91576 11.1845 9.07473 11.0673 9.19194C10.9501 9.30915 10.7911 9.375 10.6253 9.375C10.4596 9.375 10.3006 9.30915 10.1834 9.19194C10.0662 9.07473 10.0003 8.91576 10.0003 8.75V2.13359L1.06754 11.0672C0.95026 11.1845 0.7912 11.2503 0.625347 11.2503C0.459495 11.2503 0.300435 11.1845 0.18316 11.0672C0.0658846 10.9499 0 10.7909 0 10.625C0 10.4591 0.0658846 10.3001 0.18316 10.1828L9.11675 1.25H2.50035C2.33459 1.25 2.17562 1.18415 2.05841 1.06694C1.9412 0.949731 1.87535 0.79076 1.87535 0.625C1.87535 0.45924 1.9412 0.300269 2.05841 0.183058C2.17562 0.0658481 2.33459 0 2.50035 0H10.6253C10.7911 0 10.9501 0.0658481 11.0673 0.183058C11.1845 0.300269 11.2503 0.45924 11.2503 0.625Z" fill="white"/> </symbol><symbol id="icon-12" viewBox="0 0 17 17"><path d="M8.125 0C6.51803 0 4.94714 0.476523 3.611 1.36931C2.27485 2.2621 1.23344 3.53105 0.618482 5.0157C0.00352044 6.50035 -0.157382 8.13401 0.156123 9.71011C0.469628 11.2862 1.24346 12.7339 2.37976 13.8702C3.51606 15.0065 4.9638 15.7804 6.53989 16.0939C8.11599 16.4074 9.74966 16.2465 11.2343 15.6315C12.719 15.0166 13.9879 13.9752 14.8807 12.639C15.7735 11.3029 16.25 9.73197 16.25 8.125C16.2477 5.97081 15.391 3.90551 13.8677 2.38227C12.3445 0.85903 10.2792 0.00227486 8.125 0ZM8.75 14.9711V10H10.625C10.7908 10 10.9497 9.93415 11.0669 9.81694C11.1842 9.69973 11.25 9.54076 11.25 9.375C11.25 9.20924 11.1842 9.05027 11.0669 8.93306C10.9497 8.81585 10.7908 8.75 10.625 8.75H8.75V6.875C8.75 6.54348 8.8817 6.22554 9.11612 5.99112C9.35054 5.7567 9.66848 5.625 10 5.625H11.25C11.4158 5.625 11.5747 5.55915 11.6919 5.44194C11.8092 5.32473 11.875 5.16576 11.875 5C11.875 4.83424 11.8092 4.67527 11.6919 4.55806C11.5747 4.44085 11.4158 4.375 11.25 4.375H10C9.33696 4.375 8.70108 4.63839 8.23224 5.10723C7.7634 5.57607 7.5 6.21196 7.5 6.875V8.75H5.625C5.45924 8.75 5.30027 8.81585 5.18306 8.93306C5.06585 9.05027 5 9.20924 5 9.375C5 9.54076 5.06585 9.69973 5.18306 9.81694C5.30027 9.93415 5.45924 10 5.625 10H7.5V14.9711C5.73812 14.8103 4.10607 13.9764 2.94331 12.6429C1.78056 11.3095 1.17662 9.57911 1.25712 7.81174C1.33763 6.04436 2.09637 4.37606 3.37553 3.15383C4.65469 1.93161 6.3558 1.24956 8.125 1.24956C9.89421 1.24956 11.5953 1.93161 12.8745 3.15383C14.1536 4.37606 14.9124 6.04436 14.9929 7.81174C15.0734 9.57911 14.4694 11.3095 13.3067 12.6429C12.1439 13.9764 10.5119 14.8103 8.75 14.9711Z" fill="white"></path></symbol><symbol id="icon-13" viewBox="0 0 15 17"><mask id="icon-13-path-1-inside-1_4_221" fill="white"><path d="M13.75 0H1.25C0.918479 0 0.600537 0.131696 0.366116 0.366116C0.131696 0.600537 0 0.918479 0 1.25V12.5C0 12.8315 0.131696 13.1495 0.366116 13.3839C0.600537 13.6183 0.918479 13.75 1.25 13.75H2.5V16.25C2.49996 16.3688 2.53377 16.4851 2.59748 16.5854C2.66119 16.6857 2.75216 16.7657 2.85973 16.8161C2.9673 16.8666 3.08701 16.8853 3.20483 16.8701C3.32266 16.8549 3.43372 16.8065 3.525 16.7305L7.10156 13.75H10.3984C10.6911 13.7501 10.9744 13.6475 11.1992 13.4602L14.55 10.6672C14.6911 10.5502 14.8046 10.4034 14.8824 10.2374C14.9602 10.0715 15.0003 9.89034 15 9.70703V1.25C15 0.918479 14.8683 0.600537 14.6339 0.366116C14.3995 0.131696 14.0815 0 13.75 0ZM13.75 9.70703L10.3984 12.5H7.10156C6.80894 12.4999 6.52555 12.6025 6.30078 12.7898L3.75 14.9156V13.125C3.75 12.9592 3.68415 12.8003 3.56694 12.6831C3.44973 12.5658 3.29076 12.5 3.125 12.5H1.25V1.25H13.75V9.70703ZM10 8.125V4.375C10 4.20924 10.0658 4.05027 10.1831 3.93306C10.3003 3.81585 10.4592 3.75 10.625 3.75C10.7908 3.75 10.9497 3.81585 11.0669 3.93306C11.1842 4.05027 11.25 4.20924 11.25 4.375V8.125C11.25 8.29076 11.1842 8.44973 11.0669 8.56694C10.9497 8.68415 10.7908 8.75 10.625 8.75C10.4592 8.75 10.3003 8.68415 10.1831 8.56694C10.0658 8.44973 10 8.29076 10 8.125ZM6.25 8.125V4.375C6.25 4.20924 6.31585 4.05027 6.43306 3.93306C6.55027 3.81585 6.70924 3.75 6.875 3.75C7.04076 3.75 7.19973 3.81585 7.31694 3.93306C7.43415 4.05027 7.5 4.20924 7.5 4.375V8.125C7.5 8.29076 7.43415 8.44973 7.31694 8.56694C7.19973 8.68415 7.04076 8.75 6.875 8.75C6.70924 8.75 6.55027 8.68415 6.43306 8.56694C6.31585 8.44973 6.25 8.29076 6.25 8.125Z"></path></mask><path d="M13.75 0V-2V0ZM1.25 0V-2V0ZM0 1.25H-2H0ZM0 12.5H-2H0ZM2.5 13.75H4.5V11.75H2.5V13.75ZM2.5 16.25L4.5 16.2507V16.25H2.5ZM3.525 16.7305L4.805 18.2672L4.80537 18.2669L3.525 16.7305ZM7.10156 13.75V11.75H6.37746L5.82119 12.2136L7.10156 13.75ZM10.3984 13.75L10.3991 11.75H10.3984V13.75ZM11.1992 13.4602L9.91867 11.9239L9.91862 11.9239L11.1992 13.4602ZM14.55 10.6672L13.2732 9.1278L13.2695 9.13089L14.55 10.6672ZM15 9.70703H13L13 9.71065L15 9.70703ZM13.75 9.70703L15.0304 11.2435L15.75 10.6438V9.70703H13.75ZM10.3984 12.5V14.5H11.1225L11.6788 14.0364L10.3984 12.5ZM7.10156 12.5L7.10091 14.5H7.10156V12.5ZM6.30078 12.7898L7.5812 14.3262L7.58138 14.3261L6.30078 12.7898ZM3.75 14.9156H1.75V19.1859L5.03041 16.452L3.75 14.9156ZM1.25 12.5H-0.75V14.5H1.25V12.5ZM1.25 1.25V-0.75H-0.75V1.25H1.25ZM13.75 1.25H15.75V-0.75H13.75V1.25ZM13.75 0V-2H1.25V0V2H13.75V0ZM1.25 0V-2C0.388047 -2 -0.438604 -1.65759 -1.0481 -1.0481L0.366116 0.366116L1.78033 1.78033C1.63968 1.92098 1.44891 2 1.25 2V0ZM0.366116 0.366116L-1.0481 -1.0481C-1.65759 -0.438604 -2 0.388047 -2 1.25H0H2C2 1.44891 1.92098 1.63968 1.78033 1.78033L0.366116 0.366116ZM0 1.25H-2V12.5H0H2V1.25H0ZM0 12.5H-2C-2 13.362 -1.65759 14.1886 -1.0481 14.7981L0.366116 13.3839L1.78033 11.9697C1.92098 12.1103 2 12.3011 2 12.5H0ZM0.366116 13.3839L-1.0481 14.7981C-0.438605 15.4076 0.388045 15.75 1.25 15.75V13.75V11.75C1.44891 11.75 1.63968 11.829 1.78033 11.9697L0.366116 13.3839ZM1.25 13.75V15.75H2.5V13.75V11.75H1.25V13.75ZM2.5 13.75H0.5V16.25H2.5H4.5V13.75H2.5ZM2.5 16.25L0.5 16.2493C0.499813 16.7482 0.641833 17.2369 0.909421 17.658L2.59748 16.5854L4.28554 15.5128C4.42571 15.7334 4.5001 15.9894 4.5 16.2507L2.5 16.25ZM2.59748 16.5854L0.909421 17.658C1.17701 18.0791 1.55908 18.4153 2.01086 18.6271L2.85973 16.8161L3.7086 15.0052C3.94525 15.1162 4.14538 15.2922 4.28554 15.5128L2.59748 16.5854ZM2.85973 16.8161L2.01086 18.6271C2.46265 18.8388 2.96543 18.9175 3.46029 18.8537L3.20483 16.8701L2.94937 14.8865C3.20858 14.8531 3.47195 14.8943 3.7086 15.0052L2.85973 16.8161ZM3.20483 16.8701L3.46029 18.8537C3.95516 18.79 4.42162 18.5865 4.805 18.2672L3.525 16.7305L2.245 15.1937C2.44582 15.0265 2.69015 14.9199 2.94937 14.8865L3.20483 16.8701ZM3.525 16.7305L4.80537 18.2669L8.38193 15.2864L7.10156 13.75L5.82119 12.2136L2.24463 15.194L3.525 16.7305ZM7.10156 13.75V15.75H10.3984V13.75V11.75H7.10156V13.75ZM10.3984 13.75L10.3978 15.75C11.1586 15.7502 11.8954 15.4836 12.4798 14.9964L11.1992 13.4602L9.91862 11.9239C10.0535 11.8115 10.2235 11.7499 10.3991 11.75L10.3984 13.75ZM11.1992 13.4602L12.4798 14.9965L15.8305 12.2035L14.55 10.6672L13.2695 9.13089L9.91867 11.9239L11.1992 13.4602ZM14.55 10.6672L15.8268 12.2066C16.1947 11.9015 16.4905 11.5189 16.6933 11.0862L14.8824 10.2374L13.0714 9.38868C13.1186 9.28792 13.1875 9.19884 13.2732 9.1278L14.55 10.6672ZM14.8824 10.2374L16.6933 11.0862C16.8962 10.6535 17.0009 10.1813 17 9.70341L15 9.70703L13 9.71065C12.9998 9.59938 13.0242 9.48944 13.0714 9.38868L14.8824 10.2374ZM15 9.70703H17V1.25H15H13V9.70703H15ZM15 1.25H17C17 0.388045 16.6576 -0.438605 16.0481 -1.0481L14.6339 0.366116L13.2197 1.78033C13.079 1.63968 13 1.44891 13 1.25H15ZM14.6339 0.366116L16.0481 -1.0481C15.4386 -1.65759 14.612 -2 13.75 -2V0V2C13.5511 2 13.3603 1.92098 13.2197 1.78033L14.6339 0.366116ZM13.75 9.70703L12.4696 8.17059L9.11807 10.9636L10.3984 12.5L11.6788 14.0364L15.0304 11.2435L13.75 9.70703ZM10.3984 12.5V10.5H7.10156V12.5V14.5H10.3984V12.5ZM7.10156 12.5L7.10221 10.5C6.34139 10.4998 5.60459 10.7664 5.02018 11.2536L6.30078 12.7898L7.58138 14.3261C7.44652 14.4385 7.27649 14.5001 7.10091 14.5L7.10156 12.5ZM6.30078 12.7898L5.02037 11.2534L2.46959 13.3792L3.75 14.9156L5.03041 16.452L7.5812 14.3262L6.30078 12.7898ZM3.75 14.9156H5.75V13.125H3.75H1.75V14.9156H3.75ZM3.75 13.125H5.75C5.75 12.4288 5.47344 11.7611 4.98116 11.2688L3.56694 12.6831L2.15273 14.0973C1.89487 13.8394 1.75 13.4897 1.75 13.125H3.75ZM3.56694 12.6831L4.98116 11.2688C4.48887 10.7766 3.82119 10.5 3.125 10.5V12.5V14.5C2.76033 14.5 2.41059 14.3551 2.15273 14.0973L3.56694 12.6831ZM3.125 12.5V10.5H1.25V12.5V14.5H3.125V12.5ZM1.25 12.5H3.25V1.25H1.25H-0.75V12.5H1.25ZM1.25 1.25V3.25H13.75V1.25V-0.75H1.25V1.25ZM13.75 1.25H11.75V9.70703H13.75H15.75V1.25H13.75ZM10 8.125H12V4.375H10H8V8.125H10ZM10 4.375H12C12 4.73967 11.8551 5.08941 11.5973 5.34727L10.1831 3.93306L8.76884 2.51884C8.27656 3.01113 8 3.67881 8 4.375H10ZM10.1831 3.93306L11.5973 5.34727C11.3394 5.60513 10.9897 5.75 10.625 5.75V3.75V1.75C9.92881 1.75 9.26113 2.02656 8.76884 2.51884L10.1831 3.93306ZM10.625 3.75V5.75C10.2603 5.75 9.91059 5.60513 9.65273 5.34727L11.0669 3.93306L12.4812 2.51884C11.9889 2.02656 11.3212 1.75 10.625 1.75V3.75ZM11.0669 3.93306L9.65273 5.34727C9.39486 5.08941 9.25 4.73967 9.25 4.375H11.25H13.25C13.25 3.67881 12.9734 3.01113 12.4812 2.51884L11.0669 3.93306ZM11.25 4.375H9.25V8.125H11.25H13.25V4.375H11.25ZM11.25 8.125H9.25C9.25 7.76033 9.39486 7.41059 9.65273 7.15273L11.0669 8.56694L12.4812 9.98116C12.9734 9.48887 13.25 8.82119 13.25 8.125H11.25ZM11.0669 8.56694L9.65273 7.15273C9.91059 6.89486 10.2603 6.75 10.625 6.75V8.75V10.75C11.3212 10.75 11.9889 10.4734 12.4812 9.98116L11.0669 8.56694ZM10.625 8.75V6.75C10.9897 6.75 11.3394 6.89486 11.5973 7.15273L10.1831 8.56694L8.76884 9.98116C9.26113 10.4734 9.92881 10.75 10.625 10.75V8.75ZM10.1831 8.56694L11.5973 7.15273C11.8551 7.41059 12 7.76033 12 8.125H10H8C8 8.82119 8.27656 9.48887 8.76884 9.98116L10.1831 8.56694ZM6.25 8.125H8.25V4.375H6.25H4.25V8.125H6.25ZM6.25 4.375H8.25C8.25 4.73967 8.10513 5.08941 7.84727 5.34727L6.43306 3.93306L5.01884 2.51884C4.52656 3.01113 4.25 3.67881 4.25 4.375H6.25ZM6.43306 3.93306L7.84727 5.34727C7.58941 5.60513 7.23967 5.75 6.875 5.75V3.75V1.75C6.17881 1.75 5.51113 2.02656 5.01884 2.51884L6.43306 3.93306ZM6.875 3.75V5.75C6.51033 5.75 6.16059 5.60513 5.90273 5.34727L7.31694 3.93306L8.73116 2.51884C8.23887 2.02656 7.57119 1.75 6.875 1.75V3.75ZM7.31694 3.93306L5.90273 5.34727C5.64487 5.08941 5.5 4.73967 5.5 4.375H7.5H9.5C9.5 3.67881 9.22344 3.01113 8.73116 2.51884L7.31694 3.93306ZM7.5 4.375H5.5V8.125H7.5H9.5V4.375H7.5ZM7.5 8.125H5.5C5.5 7.76033 5.64487 7.41059 5.90273 7.15273L7.31694 8.56694L8.73116 9.98116C9.22344 9.48887 9.5 8.82119 9.5 8.125H7.5ZM7.31694 8.56694L5.90273 7.15273C6.16059 6.89486 6.51033 6.75 6.875 6.75V8.75V10.75C7.57119 10.75 8.23887 10.4734 8.73116 9.98116L7.31694 8.56694ZM6.875 8.75V6.75C7.23967 6.75 7.58941 6.89486 7.84727 7.15273L6.43306 8.56694L5.01884 9.98116C5.51113 10.4734 6.17881 10.75 6.875 10.75V8.75ZM6.43306 8.56694L7.84727 7.15273C8.10513 7.41059 8.25 7.76033 8.25 8.125H6.25H4.25C4.25 8.82119 4.52656 9.48887 5.01884 9.98116L6.43306 8.56694Z" fill="white" mask="url(#icon-13-path-1-inside-1_4_221)"></path></symbol><symbol id="icon-14" viewBox="0 0 19 15"><mask id="icon-14-path-1-inside-1_4_223" fill="white"><path d="M7.49987 7.81228C7.49987 7.9977 7.44489 8.17896 7.34188 8.33313C7.23886 8.4873 7.09244 8.60746 6.92114 8.67842C6.74983 8.74937 6.56133 8.76794 6.37948 8.73177C6.19762 8.69559 6.03057 8.6063 5.89946 8.47519C5.76835 8.34408 5.67906 8.17703 5.64289 7.99518C5.60671 7.81332 5.62528 7.62482 5.69624 7.45351C5.76719 7.28221 5.88736 7.13579 6.04153 7.03278C6.1957 6.92976 6.37695 6.87478 6.56237 6.87478C6.81101 6.87478 7.04947 6.97355 7.22529 7.14937C7.4011 7.32518 7.49987 7.56364 7.49987 7.81228ZM12.1874 6.87478C12.002 6.87478 11.8207 6.92976 11.6665 7.03278C11.5124 7.13579 11.3922 7.28221 11.3212 7.45351C11.2503 7.62482 11.2317 7.81332 11.2679 7.99518C11.3041 8.17703 11.3933 8.34408 11.5245 8.47519C11.6556 8.6063 11.8226 8.69559 12.0045 8.73177C12.1863 8.76794 12.3748 8.74937 12.5461 8.67842C12.7174 8.60746 12.8639 8.4873 12.9669 8.33313C13.0699 8.17896 13.1249 7.9977 13.1249 7.81228C13.1249 7.56364 13.0261 7.32518 12.8503 7.14937C12.6745 6.97355 12.436 6.87478 12.1874 6.87478ZM18.0038 11.9451L12.7694 14.2662C12.612 14.3362 12.442 14.3732 12.2697 14.375C12.0975 14.3769 11.9267 14.3435 11.7679 14.2769C11.609 14.2103 11.4655 14.112 11.346 13.9879C11.2266 13.8638 11.1338 13.7165 11.0733 13.5552L10.4397 11.8365C10.0897 11.8599 9.73477 11.8719 9.37487 11.8724C9.01498 11.873 8.66003 11.861 8.31003 11.8365L7.67644 13.5552C7.61588 13.7165 7.52303 13.8636 7.40357 13.9876C7.28411 14.1117 7.14057 14.21 6.98174 14.2766C6.82292 14.3432 6.65217 14.3766 6.47997 14.3748C6.30777 14.373 6.13775 14.336 5.98034 14.2662L0.745966 11.9451C0.4758 11.827 0.256349 11.6168 0.126719 11.3519C-0.00290974 11.0871 -0.0342959 10.7848 0.0381538 10.499L2.34362 1.40603C2.40447 1.16955 2.53295 0.955949 2.71334 0.791379C2.89373 0.626808 3.11819 0.518413 3.35925 0.479467L6.17644 0.0161857C6.487 -0.0337657 6.80505 0.0335786 7.06872 0.205121C7.33238 0.376664 7.52282 0.640141 7.603 0.944311L7.85769 1.94744C8.35404 1.899 8.85977 1.87478 9.37487 1.87478C9.88998 1.87478 10.3952 1.899 10.8905 1.94744L11.1452 0.944311C11.2252 0.640048 11.4156 0.376462 11.6793 0.204892C11.943 0.0333219 12.2612 -0.0339474 12.5717 0.0161857L15.3905 0.479467C15.6316 0.518413 15.856 0.626808 16.0364 0.791379C16.2168 0.955949 16.3453 1.16955 16.4061 1.40603L18.7132 10.4982C18.7857 10.7843 18.7542 11.0869 18.6243 11.352C18.4943 11.617 18.2744 11.8272 18.0038 11.9451ZM17.4999 10.8029L15.1928 1.71853C15.1928 1.71853 15.1928 1.71853 15.1866 1.71853L12.3694 1.24978C12.3674 1.24861 12.3651 1.248 12.3628 1.248C12.3604 1.248 12.3581 1.24861 12.3561 1.24978L12.135 2.12009C12.5257 2.19353 12.9163 2.28103 13.2936 2.38728C13.4424 2.4252 13.572 2.51655 13.6577 2.64391C13.7435 2.77127 13.7793 2.92573 13.7585 3.07783C13.7376 3.22993 13.6615 3.36904 13.5446 3.46862C13.4278 3.56819 13.2784 3.62128 13.1249 3.61775C13.0678 3.61759 13.0111 3.6097 12.9561 3.59431C11.7889 3.27758 10.5843 3.11965 9.37487 3.12478C8.16548 3.11939 6.96089 3.27706 5.79362 3.59353C5.71389 3.61818 5.63002 3.62661 5.54697 3.61832C5.46392 3.61004 5.38337 3.5852 5.31008 3.54528C5.23678 3.50536 5.17222 3.45116 5.12021 3.38589C5.0682 3.32061 5.02979 3.24558 5.00725 3.16522C4.98471 3.08486 4.97849 3.0008 4.98896 2.918C4.99943 2.8352 5.02638 2.75533 5.06822 2.68311C5.11006 2.61089 5.16594 2.54779 5.23256 2.49751C5.29918 2.44724 5.3752 2.41082 5.45612 2.3904C5.83269 2.28415 6.22019 2.19665 6.61394 2.12322L6.39284 1.24978C6.39284 1.24978 6.39284 1.24978 6.38347 1.24978L3.56315 1.71306C3.56085 1.71243 3.55842 1.71243 3.55612 1.71306L1.24987 10.8068L6.48425 13.1248C6.48688 13.1262 6.48984 13.127 6.49284 13.127C6.49584 13.127 6.4988 13.1262 6.50144 13.1248L7.03112 11.6967C6.50041 11.6155 5.975 11.5028 5.45769 11.3592C5.3036 11.3099 5.17461 11.2029 5.09782 11.0605C5.02103 10.9181 5.00244 10.7515 5.04594 10.5957C5.08944 10.4399 5.19165 10.3071 5.33109 10.2251C5.47052 10.1431 5.63632 10.1183 5.79362 10.156C6.96081 10.4729 8.16546 10.6305 9.37487 10.6248C10.5843 10.6305 11.7889 10.4729 12.9561 10.156C13.1158 10.1113 13.2867 10.1318 13.4312 10.213C13.5757 10.2943 13.6821 10.4296 13.7268 10.5892C13.7716 10.7489 13.7511 10.9198 13.6698 11.0643C13.5886 11.2088 13.4533 11.3152 13.2936 11.3599C12.7758 11.5033 12.2498 11.6158 11.7186 11.6967L12.246 13.1248C12.2485 13.1261 12.2513 13.1269 12.2542 13.1269C12.257 13.1269 12.2599 13.1261 12.2624 13.1248L17.4999 10.8029Z"></path></mask><path d="M7.49987 7.81228C7.49987 7.9977 7.44489 8.17896 7.34188 8.33313C7.23886 8.4873 7.09244 8.60746 6.92114 8.67842C6.74983 8.74937 6.56133 8.76794 6.37948 8.73177C6.19762 8.69559 6.03057 8.6063 5.89946 8.47519C5.76835 8.34408 5.67906 8.17703 5.64289 7.99518C5.60671 7.81332 5.62528 7.62482 5.69624 7.45351C5.76719 7.28221 5.88736 7.13579 6.04153 7.03278C6.1957 6.92976 6.37695 6.87478 6.56237 6.87478C6.81101 6.87478 7.04947 6.97355 7.22529 7.14937C7.4011 7.32518 7.49987 7.56364 7.49987 7.81228ZM12.1874 6.87478C12.002 6.87478 11.8207 6.92976 11.6665 7.03278C11.5124 7.13579 11.3922 7.28221 11.3212 7.45351C11.2503 7.62482 11.2317 7.81332 11.2679 7.99518C11.3041 8.17703 11.3933 8.34408 11.5245 8.47519C11.6556 8.6063 11.8226 8.69559 12.0045 8.73177C12.1863 8.76794 12.3748 8.74937 12.5461 8.67842C12.7174 8.60746 12.8639 8.4873 12.9669 8.33313C13.0699 8.17896 13.1249 7.9977 13.1249 7.81228C13.1249 7.56364 13.0261 7.32518 12.8503 7.14937C12.6745 6.97355 12.436 6.87478 12.1874 6.87478ZM18.0038 11.9451L12.7694 14.2662C12.612 14.3362 12.442 14.3732 12.2697 14.375C12.0975 14.3769 11.9267 14.3435 11.7679 14.2769C11.609 14.2103 11.4655 14.112 11.346 13.9879C11.2266 13.8638 11.1338 13.7165 11.0733 13.5552L10.4397 11.8365C10.0897 11.8599 9.73477 11.8719 9.37487 11.8724C9.01498 11.873 8.66003 11.861 8.31003 11.8365L7.67644 13.5552C7.61588 13.7165 7.52303 13.8636 7.40357 13.9876C7.28411 14.1117 7.14057 14.21 6.98174 14.2766C6.82292 14.3432 6.65217 14.3766 6.47997 14.3748C6.30777 14.373 6.13775 14.336 5.98034 14.2662L0.745966 11.9451C0.4758 11.827 0.256349 11.6168 0.126719 11.3519C-0.00290974 11.0871 -0.0342959 10.7848 0.0381538 10.499L2.34362 1.40603C2.40447 1.16955 2.53295 0.955949 2.71334 0.791379C2.89373 0.626808 3.11819 0.518413 3.35925 0.479467L6.17644 0.0161857C6.487 -0.0337657 6.80505 0.0335786 7.06872 0.205121C7.33238 0.376664 7.52282 0.640141 7.603 0.944311L7.85769 1.94744C8.35404 1.899 8.85977 1.87478 9.37487 1.87478C9.88998 1.87478 10.3952 1.899 10.8905 1.94744L11.1452 0.944311C11.2252 0.640048 11.4156 0.376462 11.6793 0.204892C11.943 0.0333219 12.2612 -0.0339474 12.5717 0.0161857L15.3905 0.479467C15.6316 0.518413 15.856 0.626808 16.0364 0.791379C16.2168 0.955949 16.3453 1.16955 16.4061 1.40603L18.7132 10.4982C18.7857 10.7843 18.7542 11.0869 18.6243 11.352C18.4943 11.617 18.2744 11.8272 18.0038 11.9451ZM17.4999 10.8029L15.1928 1.71853C15.1928 1.71853 15.1928 1.71853 15.1866 1.71853L12.3694 1.24978C12.3674 1.24861 12.3651 1.248 12.3628 1.248C12.3604 1.248 12.3581 1.24861 12.3561 1.24978L12.135 2.12009C12.5257 2.19353 12.9163 2.28103 13.2936 2.38728C13.4424 2.4252 13.572 2.51655 13.6577 2.64391C13.7435 2.77127 13.7793 2.92573 13.7585 3.07783C13.7376 3.22993 13.6615 3.36904 13.5446 3.46862C13.4278 3.56819 13.2784 3.62128 13.1249 3.61775C13.0678 3.61759 13.0111 3.6097 12.9561 3.59431C11.7889 3.27758 10.5843 3.11965 9.37487 3.12478C8.16548 3.11939 6.96089 3.27706 5.79362 3.59353C5.71389 3.61818 5.63002 3.62661 5.54697 3.61832C5.46392 3.61004 5.38337 3.5852 5.31008 3.54528C5.23678 3.50536 5.17222 3.45116 5.12021 3.38589C5.0682 3.32061 5.02979 3.24558 5.00725 3.16522C4.98471 3.08486 4.97849 3.0008 4.98896 2.918C4.99943 2.8352 5.02638 2.75533 5.06822 2.68311C5.11006 2.61089 5.16594 2.54779 5.23256 2.49751C5.29918 2.44724 5.3752 2.41082 5.45612 2.3904C5.83269 2.28415 6.22019 2.19665 6.61394 2.12322L6.39284 1.24978C6.39284 1.24978 6.39284 1.24978 6.38347 1.24978L3.56315 1.71306C3.56085 1.71243 3.55842 1.71243 3.55612 1.71306L1.24987 10.8068L6.48425 13.1248C6.48688 13.1262 6.48984 13.127 6.49284 13.127C6.49584 13.127 6.4988 13.1262 6.50144 13.1248L7.03112 11.6967C6.50041 11.6155 5.975 11.5028 5.45769 11.3592C5.3036 11.3099 5.17461 11.2029 5.09782 11.0605C5.02103 10.9181 5.00244 10.7515 5.04594 10.5957C5.08944 10.4399 5.19165 10.3071 5.33109 10.2251C5.47052 10.1431 5.63632 10.1183 5.79362 10.156C6.96081 10.4729 8.16546 10.6305 9.37487 10.6248C10.5843 10.6305 11.7889 10.4729 12.9561 10.156C13.1158 10.1113 13.2867 10.1318 13.4312 10.213C13.5757 10.2943 13.6821 10.4296 13.7268 10.5892C13.7716 10.7489 13.7511 10.9198 13.6698 11.0643C13.5886 11.2088 13.4533 11.3152 13.2936 11.3599C12.7758 11.5033 12.2498 11.6158 11.7186 11.6967L12.246 13.1248C12.2485 13.1261 12.2513 13.1269 12.2542 13.1269C12.257 13.1269 12.2599 13.1261 12.2624 13.1248L17.4999 10.8029Z" stroke="white" stroke-width="4" mask="url(#icon-14-path-1-inside-1_4_223)"></path></symbol><symbol id="icon-15" viewBox="-1 -1 102 102"> <path d="M50,1 a49,49 0 0,1 0,98 a49,49 0 0,1 0,-98"/> </symbol><symbol id="icon-16" viewBox="0 0 24 24"> <g clip-path="url(#icon-16-clip0_243_485)"> <path d="M10.5 18C14.6421 18 18 14.6421 18 10.5C18 6.35786 14.6421 3 10.5 3C6.35786 3 3 6.35786 3 10.5C3 14.6421 6.35786 18 10.5 18Z" stroke="black" stroke-width="2" stroke-linecap="round" stroke-linejoin="round" /> <path d="M15.8047 15.8037L21.0012 21.0003" stroke="black" stroke-width="2" stroke-linecap="round" stroke-linejoin="round" /> </g> <defs> <clipPath id="icon-16-clip0_243_485"> <rect width="24" height="24" fill="black" /> </clipPath> </defs> </symbol></svg>