<svg width="14" height="14" viewBox="0 0 14 14" fill="none" xmlns="http://www.w3.org/2000/svg">
<path d="M7.31754 7.31754L1.06753 13.5675C0.95026 13.6848 0.7912 13.7507 0.625347 13.7507C0.459495 13.7507 0.300435 13.6848 0.18316 13.5675C0.0658846 13.4503 3.26935e-09 13.2912 0 13.1253C-3.26935e-09 12.9595 0.0658846 12.8004 0.18316 12.6832L5.99175 6.87535L0.18316 1.06753C0.0658846 0.95026 0 0.7912 0 0.625347C0 0.459495 0.0658846 0.300435 0.18316 0.18316C0.300435 0.0658846 0.459495 0 0.625347 0C0.7912 0 0.95026 0.0658846 1.06753 0.18316L7.31754 6.43316C7.37565 6.49121 7.42175 6.56014 7.4532 6.63601C7.48465 6.71188 7.50084 6.79321 7.50084 6.87535C7.50084 6.95748 7.48465 7.03881 7.4532 7.11469C7.42175 7.19056 7.37565 7.25949 7.31754 7.31754ZM13.5675 6.43316L7.31754 0.18316C7.20026 0.0658846 7.0412 0 6.87535 0C6.7095 0 6.55044 0.0658846 6.43316 0.18316C6.31588 0.300435 6.25 0.459495 6.25 0.625347C6.25 0.7912 6.31588 0.95026 6.43316 1.06753L12.2418 6.87535L6.43316 12.6832C6.31588 12.8004 6.25 12.9595 6.25 13.1253C6.25 13.2912 6.31588 13.4503 6.43316 13.5675C6.55044 13.6848 6.7095 13.7507 6.87535 13.7507C7.0412 13.7507 7.20026 13.6848 7.31754 13.5675L13.5675 7.31754C13.6256 7.25949 13.6717 7.19056 13.7032 7.11469C13.7347 7.03881 13.7508 6.95748 13.7508 6.87535C13.7508 6.79321 13.7347 6.71188 13.7032 6.63601C13.6717 6.56014 13.6256 6.49121 13.5675 6.43316Z" fill="#000704"/>
</svg>
