<svg width="14" height="14" viewBox="0 0 14 14" fill="none" xmlns="http://www.w3.org/2000/svg">
<mask id="path-1-inside-1_75_871" fill="white">
<path d="M13.3117 0.788307L9.11169 4.98831H11.7304C11.8548 4.98831 11.974 5.03769 12.0619 5.1256C12.1498 5.21351 12.1992 5.33274 12.1992 5.45706C12.1992 5.58138 12.1498 5.70061 12.0619 5.78851C11.974 5.87642 11.8548 5.92581 11.7304 5.92581H7.98044C7.85612 5.92581 7.73689 5.87642 7.64899 5.78851C7.56108 5.70061 7.51169 5.58138 7.51169 5.45706V1.70706C7.51169 1.58274 7.56108 1.46351 7.64899 1.3756C7.73689 1.28769 7.85612 1.23831 7.98044 1.23831C8.10476 1.23831 8.22399 1.28769 8.3119 1.3756C8.39981 1.46351 8.44919 1.58274 8.44919 1.70706V4.32581L12.6492 0.125807C12.7381 0.0430072 12.8556 -0.00206961 12.977 7.30296e-05C13.0985 0.00221566 13.2143 0.0514105 13.3002 0.137294C13.3861 0.223177 13.4353 0.339043 13.4374 0.460481C13.4396 0.581919 13.3945 0.699448 13.3117 0.788307ZM5.48044 7.48831H1.73044C1.60612 7.48831 1.48689 7.53769 1.39899 7.6256C1.31108 7.71351 1.26169 7.83274 1.26169 7.95706C1.26169 8.08138 1.31108 8.20061 1.39899 8.28851C1.48689 8.37642 1.60612 8.42581 1.73044 8.42581H4.34919L0.149192 12.6258C0.103138 12.6687 0.0661993 12.7205 0.0405794 12.778C0.0149594 12.8355 0.00118344 12.8975 7.29516e-05 12.9605C-0.00103754 13.0234 0.0105402 13.0859 0.0341158 13.1443C0.0576915 13.2027 0.0927818 13.2557 0.137294 13.3002C0.181805 13.3447 0.234826 13.3798 0.293194 13.4034C0.351562 13.427 0.41408 13.4385 0.477019 13.4374C0.539958 13.4363 0.602029 13.4225 0.659529 13.3969C0.717028 13.3713 0.768779 13.3344 0.811693 13.2883L5.01169 9.08831V11.7071C5.01169 11.8314 5.06108 11.9506 5.14899 12.0385C5.23689 12.1264 5.35612 12.1758 5.48044 12.1758C5.60476 12.1758 5.72399 12.1264 5.8119 12.0385C5.89981 11.9506 5.94919 11.8314 5.94919 11.7071V7.95706C5.94919 7.83274 5.89981 7.71351 5.8119 7.6256C5.72399 7.53769 5.60476 7.48831 5.48044 7.48831Z"/>
</mask>
<path d="M13.3117 0.788307L9.11169 4.98831H11.7304C11.8548 4.98831 11.974 5.03769 12.0619 5.1256C12.1498 5.21351 12.1992 5.33274 12.1992 5.45706C12.1992 5.58138 12.1498 5.70061 12.0619 5.78851C11.974 5.87642 11.8548 5.92581 11.7304 5.92581H7.98044C7.85612 5.92581 7.73689 5.87642 7.64899 5.78851C7.56108 5.70061 7.51169 5.58138 7.51169 5.45706V1.70706C7.51169 1.58274 7.56108 1.46351 7.64899 1.3756C7.73689 1.28769 7.85612 1.23831 7.98044 1.23831C8.10476 1.23831 8.22399 1.28769 8.3119 1.3756C8.39981 1.46351 8.44919 1.58274 8.44919 1.70706V4.32581L12.6492 0.125807C12.7381 0.0430072 12.8556 -0.00206961 12.977 7.30296e-05C13.0985 0.00221566 13.2143 0.0514105 13.3002 0.137294C13.3861 0.223177 13.4353 0.339043 13.4374 0.460481C13.4396 0.581919 13.3945 0.699448 13.3117 0.788307ZM5.48044 7.48831H1.73044C1.60612 7.48831 1.48689 7.53769 1.39899 7.6256C1.31108 7.71351 1.26169 7.83274 1.26169 7.95706C1.26169 8.08138 1.31108 8.20061 1.39899 8.28851C1.48689 8.37642 1.60612 8.42581 1.73044 8.42581H4.34919L0.149192 12.6258C0.103138 12.6687 0.0661993 12.7205 0.0405794 12.778C0.0149594 12.8355 0.00118344 12.8975 7.29516e-05 12.9605C-0.00103754 13.0234 0.0105402 13.0859 0.0341158 13.1443C0.0576915 13.2027 0.0927818 13.2557 0.137294 13.3002C0.181805 13.3447 0.234826 13.3798 0.293194 13.4034C0.351562 13.427 0.41408 13.4385 0.477019 13.4374C0.539958 13.4363 0.602029 13.4225 0.659529 13.3969C0.717028 13.3713 0.768779 13.3344 0.811693 13.2883L5.01169 9.08831V11.7071C5.01169 11.8314 5.06108 11.9506 5.14899 12.0385C5.23689 12.1264 5.35612 12.1758 5.48044 12.1758C5.60476 12.1758 5.72399 12.1264 5.8119 12.0385C5.89981 11.9506 5.94919 11.8314 5.94919 11.7071V7.95706C5.94919 7.83274 5.89981 7.71351 5.8119 7.6256C5.72399 7.53769 5.60476 7.48831 5.48044 7.48831Z" fill="#000704"/>
<path d="M13.3117 0.788307L14.7259 2.20252L14.7509 2.17757L14.7749 2.15175L13.3117 0.788307ZM9.11169 4.98831L7.69748 3.57409L4.28327 6.98831H9.11169V4.98831ZM11.7304 4.98831V6.98831V4.98831ZM7.98044 5.92581V7.92581V5.92581ZM7.98044 1.23831V-0.761693V1.23831ZM8.44919 4.32581H6.44919V9.15423L9.86341 5.74002L8.44919 4.32581ZM12.6492 0.125807L11.2857 -1.33741L11.2599 -1.31336L11.235 -1.28841L12.6492 0.125807ZM1.26169 7.95706H-0.738307H1.26169ZM4.34919 8.42581L5.76341 9.84002L9.17762 6.42581H4.34919V8.42581ZM0.149192 12.6258L1.51264 14.089L1.53845 14.065L1.56341 14.04L0.149192 12.6258ZM0.811693 13.2883L-0.602521 11.8741L-0.627473 11.899L-0.651529 11.9249L0.811693 13.2883ZM5.01169 9.08831H7.01169V4.25988L3.59748 7.67409L5.01169 9.08831ZM5.01169 11.7071H7.01169H5.01169ZM5.94919 7.95706H7.94919H5.94919ZM13.3117 0.788307L11.8975 -0.625906L7.69748 3.57409L9.11169 4.98831L10.5259 6.40252L14.7259 2.20252L13.3117 0.788307ZM9.11169 4.98831V6.98831H11.7304V4.98831V2.98831H9.11169V4.98831ZM11.7304 4.98831V6.98831C11.3243 6.98831 10.9348 6.82698 10.6477 6.53981L12.0619 5.1256L13.4761 3.71139C13.0131 3.24841 12.3852 2.98831 11.7304 2.98831V4.98831ZM12.0619 5.1256L10.6477 6.53981C10.3605 6.25265 10.1992 5.86317 10.1992 5.45706H12.1992H14.1992C14.1992 4.80231 13.9391 4.17437 13.4761 3.71139L12.0619 5.1256ZM12.1992 5.45706H10.1992C10.1992 5.05095 10.3605 4.66147 10.6477 4.3743L12.0619 5.78851L13.4761 7.20273C13.9391 6.73974 14.1992 6.11181 14.1992 5.45706H12.1992ZM12.0619 5.78851L10.6477 4.3743C10.9348 4.08714 11.3243 3.92581 11.7304 3.92581V5.92581V7.92581C12.3852 7.92581 13.0131 7.66571 13.4761 7.20273L12.0619 5.78851ZM11.7304 5.92581V3.92581H7.98044V5.92581V7.92581H11.7304V5.92581ZM7.98044 5.92581V3.92581C8.38656 3.92581 8.77604 4.08714 9.0632 4.3743L7.64899 5.78851L6.23477 7.20273C6.69775 7.66571 7.32569 7.92581 7.98044 7.92581V5.92581ZM7.64899 5.78851L9.0632 4.3743C9.35037 4.66147 9.51169 5.05095 9.51169 5.45706H7.51169H5.51169C5.51169 6.11181 5.77179 6.73974 6.23477 7.20273L7.64899 5.78851ZM7.51169 5.45706H9.51169V1.70706H7.51169H5.51169V5.45706H7.51169ZM7.51169 1.70706H9.51169C9.51169 2.11317 9.35037 2.50265 9.0632 2.78981L7.64899 1.3756L6.23477 -0.0386126C5.77179 0.424371 5.51169 1.05231 5.51169 1.70706H7.51169ZM7.64899 1.3756L9.0632 2.78981C8.77603 3.07698 8.38655 3.23831 7.98044 3.23831V1.23831V-0.761693C7.32569 -0.761693 6.69775 -0.501595 6.23477 -0.0386126L7.64899 1.3756ZM7.98044 1.23831V3.23831C7.57433 3.23831 7.18485 3.07698 6.89769 2.78981L8.3119 1.3756L9.72611 -0.0386126C9.26313 -0.501595 8.63519 -0.761693 7.98044 -0.761693V1.23831ZM8.3119 1.3756L6.89769 2.78981C6.61052 2.50265 6.44919 2.11317 6.44919 1.70706H8.44919H10.4492C10.4492 1.05231 10.1891 0.424371 9.72611 -0.0386126L8.3119 1.3756ZM8.44919 1.70706H6.44919V4.32581H8.44919H10.4492V1.70706H8.44919ZM8.44919 4.32581L9.86341 5.74002L14.0634 1.54002L12.6492 0.125807L11.235 -1.28841L7.03498 2.91159L8.44919 4.32581ZM12.6492 0.125807L14.0126 1.58903C13.7224 1.85951 13.3384 2.00676 12.9417 1.99976L12.977 7.30296e-05L13.0123 -1.99962C12.3727 -2.0109 11.7537 -1.7735 11.2857 -1.33741L12.6492 0.125807ZM12.977 7.30296e-05L12.9417 1.99976C12.545 1.99276 12.1665 1.83206 11.886 1.55151L13.3002 0.137294L14.7144 -1.27692C14.2621 -1.72924 13.6519 -1.98833 13.0123 -1.99962L12.977 7.30296e-05ZM13.3002 0.137294L11.886 1.55151C11.6054 1.27095 11.4447 0.892459 11.4377 0.495763L13.4374 0.460481L15.4371 0.425199C15.4258 -0.214374 15.1667 -0.824601 14.7144 -1.27692L13.3002 0.137294ZM13.4374 0.460481L11.4377 0.495763C11.4307 0.0990741 11.578 -0.284856 11.8485 -0.575137L13.3117 0.788307L14.7749 2.15175C15.211 1.68375 15.4484 1.06476 15.4371 0.425199L13.4374 0.460481ZM5.48044 7.48831V5.48831H1.73044V7.48831V9.48831H5.48044V7.48831ZM1.73044 7.48831V5.48831C1.07569 5.48831 0.447756 5.7484 -0.0152273 6.21139L1.39899 7.6256L2.8132 9.03981C2.52603 9.32698 2.13655 9.48831 1.73044 9.48831V7.48831ZM1.39899 7.6256L-0.0152273 6.21139C-0.478209 6.67437 -0.738307 7.30231 -0.738307 7.95706H1.26169H3.26169C3.26169 8.36317 3.10037 8.75265 2.8132 9.03981L1.39899 7.6256ZM1.26169 7.95706H-0.738307C-0.738307 8.61181 -0.478209 9.23975 -0.0152273 9.70273L1.39899 8.28851L2.8132 6.8743C3.10037 7.16147 3.26169 7.55095 3.26169 7.95706H1.26169ZM1.39899 8.28851L-0.0152273 9.70273C0.447756 10.1657 1.07569 10.4258 1.73044 10.4258V8.42581V6.42581C2.13655 6.42581 2.52603 6.58713 2.8132 6.8743L1.39899 8.28851ZM1.73044 8.42581V10.4258H4.34919V8.42581V6.42581H1.73044V8.42581ZM4.34919 8.42581L2.93498 7.01159L-1.26502 11.2116L0.149192 12.6258L1.56341 14.04L5.76341 9.84002L4.34919 8.42581ZM0.149192 12.6258L-1.21425 11.1626C-1.4568 11.3886 -1.65135 11.6611 -1.78628 11.964L0.0405794 12.778L1.86744 13.592C1.78375 13.7798 1.66308 13.9488 1.51264 14.089L0.149192 12.6258ZM0.0405794 12.778L-1.78628 11.964C-1.92122 12.2668 -1.99377 12.5937 -1.99962 12.9252L7.29516e-05 12.9605L1.99976 12.9958C1.99613 13.2014 1.95114 13.4041 1.86744 13.592L0.0405794 12.778ZM7.29516e-05 12.9605L-1.99962 12.9252C-2.00546 13.2567 -1.94449 13.5859 -1.82032 13.8933L0.0341158 13.1443L1.88855 12.3953C1.96557 12.5859 2.00339 12.7902 1.99976 12.9958L7.29516e-05 12.9605ZM0.0341158 13.1443L-1.82032 13.8933C-1.69616 14.2007 -1.51135 14.48 -1.27692 14.7144L0.137294 13.3002L1.55151 11.886C1.69691 12.0314 1.81154 12.2046 1.88855 12.3953L0.0341158 13.1443ZM0.137294 13.3002L-1.27692 14.7144C-1.0425 14.9488 -0.763253 15.1337 -0.455844 15.2578L0.293194 13.4034L1.04223 11.5489C1.23291 11.626 1.40611 11.7406 1.55151 11.886L0.137294 13.3002ZM0.293194 13.4034L-0.455844 15.2578C-0.148432 15.382 0.180831 15.443 0.512301 15.4371L0.477019 13.4374L0.441737 11.4377C0.647328 11.4341 0.851555 11.4719 1.04223 11.5489L0.293194 13.4034ZM0.477019 13.4374L0.512301 15.4371C0.843772 15.4313 1.17068 15.3587 1.47352 15.2238L0.659529 13.3969L-0.154462 11.5701C0.0333797 11.4864 0.236145 11.4414 0.441737 11.4377L0.477019 13.4374ZM0.659529 13.3969L1.47352 15.2238C1.77634 15.0889 2.0489 14.8943 2.27491 14.6518L0.811693 13.2883L-0.651529 11.9249C-0.511339 11.7744 -0.342286 11.6537 -0.154462 11.5701L0.659529 13.3969ZM0.811693 13.2883L2.22591 14.7025L6.42591 10.5025L5.01169 9.08831L3.59748 7.67409L-0.602521 11.8741L0.811693 13.2883ZM5.01169 9.08831H3.01169V11.7071H5.01169H7.01169V9.08831H5.01169ZM5.01169 11.7071H3.01169C3.01169 12.3618 3.27179 12.9897 3.73477 13.4527L5.14899 12.0385L6.5632 10.6243C6.85036 10.9115 7.01169 11.3009 7.01169 11.7071H5.01169ZM5.14899 12.0385L3.73477 13.4527C4.19776 13.9157 4.82569 14.1758 5.48044 14.1758V12.1758V10.1758C5.88655 10.1758 6.27603 10.3371 6.5632 10.6243L5.14899 12.0385ZM5.48044 12.1758V14.1758C6.13519 14.1758 6.76313 13.9157 7.22611 13.4527L5.8119 12.0385L4.39769 10.6243C4.68485 10.3371 5.07433 10.1758 5.48044 10.1758V12.1758ZM5.8119 12.0385L7.22611 13.4527C7.68909 12.9897 7.94919 12.3618 7.94919 11.7071H5.94919H3.94919C3.94919 11.3009 4.11052 10.9115 4.39769 10.6243L5.8119 12.0385ZM5.94919 11.7071H7.94919V7.95706H5.94919H3.94919V11.7071H5.94919ZM5.94919 7.95706H7.94919C7.94919 7.3023 7.68909 6.67437 7.22611 6.21139L5.8119 7.6256L4.39769 9.03981C4.11052 8.75265 3.94919 8.36317 3.94919 7.95706H5.94919ZM5.8119 7.6256L7.22611 6.21139C6.76313 5.7484 6.13519 5.48831 5.48044 5.48831V7.48831V9.48831C5.07433 9.48831 4.68485 9.32698 4.39769 9.03981L5.8119 7.6256Z" fill="#000704" mask="url(#path-1-inside-1_75_871)"/>
</svg>
