<svg width="18" height="15" viewBox="0 0 18 15" fill="none" xmlns="http://www.w3.org/2000/svg">
<path d="M15.9108 1.28577C15.0908 0.467426 13.9799 0.00730467 12.8214 0.0061333C11.6629 0.00496192 10.5512 0.462836 9.72952 1.27952L8.59827 2.33265L7.46702 1.27952C6.64599 0.459526 5.53284 -0.000731699 4.37246 8.73166e-07C3.21208 0.000733446 2.09952 0.462396 1.27952 1.28343C0.459525 2.10446 -0.000731682 3.21761 8.73125e-07 4.37799C0.000733428 5.53837 0.462396 6.65093 1.28343 7.47093L8.26468 14.5537C8.30828 14.5979 8.36022 14.633 8.41749 14.6569C8.47475 14.6809 8.5362 14.6932 8.59827 14.6932C8.66034 14.6932 8.72179 14.6809 8.77905 14.6569C8.83632 14.633 8.88826 14.5979 8.93187 14.5537L15.9108 7.47405C16.3172 7.06778 16.6396 6.58541 16.8596 6.05451C17.0795 5.52361 17.1927 4.95458 17.1927 4.37991C17.1927 3.80525 17.0795 3.23621 16.8596 2.70531C16.6396 2.17441 16.3172 1.69205 15.9108 1.28577ZM15.2451 6.81311L8.59827 13.5569L1.94905 6.81077C1.30815 6.16538 0.949154 5.29228 0.950704 4.38273C0.952255 3.47317 1.31422 2.60131 1.95732 1.9581C2.60043 1.3149 3.47223 0.952791 4.38179 0.951095C5.29134 0.949398 6.16449 1.30825 6.80999 1.94905C6.81378 1.9531 6.81797 1.95677 6.82249 1.95999L8.27874 3.31624C8.36551 3.39708 8.47968 3.44202 8.59827 3.44202C8.71686 3.44202 8.83104 3.39708 8.9178 3.31624L10.3741 1.95921C10.3786 1.95599 10.3828 1.95232 10.3866 1.94827C10.7055 1.6274 11.0847 1.37266 11.5023 1.19865C11.92 1.02463 12.3679 0.934781 12.8203 0.934238C13.2727 0.933695 13.7208 1.02247 14.1389 1.19548C14.5569 1.36849 14.9367 1.62232 15.2565 1.94242C15.5762 2.26253 15.8296 2.6426 16.0022 3.06085C16.1747 3.4791 16.263 3.92729 16.2619 4.37973C16.2609 4.83217 16.1705 5.27995 15.996 5.69739C15.8215 6.11483 15.5664 6.49372 15.2451 6.81233V6.81311Z" fill="#000704"/>
</svg>
