<svg width="20" height="20" viewBox="0 0 20 20" fill="none" xmlns="http://www.w3.org/2000/svg">
<path d="M18.7715 18.7705L18.7705 18.7715L14.0771 14.0771L18.7715 18.7705ZM8.21094 15.7686C8.1228 15.768 8.03462 15.7654 7.94629 15.7617C8.03433 15.7656 8.12252 15.7678 8.21094 15.7686ZM8.48535 15.7666C8.46453 15.7672 8.44369 15.7671 8.42285 15.7676C8.44369 15.7672 8.46453 15.7672 8.48535 15.7666ZM7.86426 15.7578C7.82589 15.7558 7.78741 15.7555 7.74902 15.7529C7.6887 15.7488 7.62843 15.7419 7.56836 15.7363C7.66668 15.7457 7.76533 15.7524 7.86426 15.7578ZM8.08984 0.751953C10.0221 0.708083 11.8969 1.41072 13.3242 2.71387C14.6948 3.96522 15.5489 5.67804 15.7314 7.51953C15.7075 7.28144 15.6739 7.04372 15.627 6.80762C15.3376 5.35289 14.623 4.01663 13.5742 2.96777C12.5254 1.919 11.189 1.20449 9.73438 0.915039C8.27952 0.62565 6.77084 0.77414 5.40039 1.3418C4.03023 1.90939 2.8592 2.87046 2.03516 4.10352C1.21109 5.33682 0.77055 6.78722 0.770508 8.27051V8.27148C0.772713 10.2597 1.56384 12.1664 2.96973 13.5723C4.19454 14.797 5.79922 15.5541 7.50684 15.7305C5.67016 15.5453 3.96235 14.6917 2.71387 13.3242C1.41072 11.8969 0.708083 10.0221 0.751953 8.08984C0.795868 6.15755 1.58351 4.31688 2.9502 2.9502C4.31688 1.58351 6.15755 0.795868 8.08984 0.751953ZM13.5928 13.5928L13.2324 13.8926C13.4603 13.6915 13.6757 13.4775 13.877 13.251L13.5928 13.5928ZM15.7158 9.15527C15.714 9.17055 15.7129 9.18591 15.7109 9.20117C15.7128 9.1859 15.714 9.17055 15.7158 9.15527ZM15.7646 8.01855C15.766 8.06058 15.7679 8.10255 15.7686 8.14453C15.7678 8.10253 15.7661 8.06056 15.7646 8.01855ZM15.7529 7.74902C15.7547 7.77505 15.7553 7.80113 15.7568 7.82715C15.7538 7.77667 15.7501 7.72623 15.7461 7.67578C15.748 7.70013 15.7513 7.72464 15.7529 7.74902Z" fill="#343330" stroke="white" stroke-width="1.5"/>
</svg>
