<svg width="15" height="9" viewBox="0 0 15 9" fill="none" xmlns="http://www.w3.org/2000/svg">
<path d="M13.4404 7.3797C13.4906 7.3797 13.5388 7.3595 13.5742 7.32404C13.6097 7.28857 13.6299 7.24039 13.6299 7.19025C13.6298 7.14123 13.6102 7.09456 13.5762 7.05939L7.32227 0.805481C7.30485 0.788003 7.28354 0.77393 7.26074 0.764465C7.2381 0.755095 7.21394 0.74986 7.18945 0.749817C7.16478 0.749817 7.13998 0.755 7.11719 0.764465C7.09442 0.773929 7.07404 0.788024 7.05664 0.805481L0.805664 7.05646C0.770236 7.09192 0.75 7.14012 0.75 7.19025C0.75012 7.2402 0.770364 7.28771 0.805664 7.32306C0.841132 7.35853 0.889293 7.37872 0.939453 7.37872C0.989495 7.37864 1.03785 7.35845 1.07324 7.32306L6.65918 1.73712L7.19043 1.20685L7.7207 1.73712L13.3066 7.32404C13.342 7.35944 13.3904 7.37963 13.4404 7.3797Z" fill="black" stroke="black" stroke-width="1.5"/>
</svg>
