<svg width="10" height="18" viewBox="0 0 10 18" fill="none" xmlns="http://www.w3.org/2000/svg">
<path d="M1.12891 0.75C1.17838 0.75001 1.22773 0.759387 1.27344 0.77832C1.3191 0.797262 1.36055 0.825393 1.39551 0.860352L8.89551 8.36035C8.93042 8.39523 8.95867 8.43683 8.97754 8.48242C8.99635 8.52788 9.00585 8.57678 9.00586 8.62598C9.0058 8.67533 8.99554 8.72495 8.97656 8.77051C8.95766 8.81576 8.93023 8.85697 8.89551 8.8916L1.39355 16.3936C1.32286 16.4642 1.22693 16.5039 1.12695 16.5039C1.02698 16.5039 0.931043 16.4642 0.860352 16.3936C0.78966 16.3229 0.750001 16.2269 0.75 16.127C0.75 16.052 0.7725 15.9794 0.813477 15.918L0.860352 15.8604L7.56445 9.1582L8.09473 8.62793L7.56445 8.09766L0.862305 1.39355C0.827335 1.35859 0.799215 1.31716 0.780273 1.27148C0.76133 1.22575 0.751953 1.17645 0.751953 1.12695C0.751953 1.07745 0.76133 1.02816 0.780273 0.982422C0.799215 0.936741 0.827334 0.895322 0.862305 0.860352C0.89729 0.825376 0.938673 0.797257 0.984375 0.77832C1.03011 0.759377 1.0794 0.75 1.12891 0.75Z" fill="#1C1C1D" stroke="#CAA05C" stroke-width="1.5"/>
</svg>
