<svg width="19" height="13" viewBox="0 0 19 13" fill="none" xmlns="http://www.w3.org/2000/svg">
<path d="M18.3968 5.90391C18.3702 5.84297 17.7202 4.40156 16.2686 2.95C14.9218 1.60469 12.6077 0 9.21864 0C5.82957 0 3.51551 1.60469 2.16864 2.95C0.717073 4.40156 0.0670735 5.84062 0.040511 5.90391C0.0138019 5.96391 0 6.02885 0 6.09453C0 6.16021 0.0138019 6.22515 0.040511 6.28516C0.0670735 6.34531 0.717073 7.78672 2.16864 9.23828C3.51551 10.5836 5.82957 12.1875 9.21864 12.1875C12.6077 12.1875 14.9218 10.5836 16.2686 9.23828C17.7202 7.78672 18.3702 6.34766 18.3968 6.28516C18.4235 6.22515 18.4373 6.16021 18.4373 6.09453C18.4373 6.02885 18.4235 5.96391 18.3968 5.90391ZM9.21864 11.25C6.76707 11.25 4.62645 10.3578 2.85535 8.59922C2.11291 7.86136 1.48465 7.01692 0.991292 6.09375C1.48451 5.17072 2.11279 4.32652 2.85535 3.58906C4.62645 1.82969 6.76707 0.9375 9.21864 0.9375C11.6702 0.9375 13.8108 1.82969 15.5819 3.58906C16.3245 4.32652 16.9528 5.17072 17.446 6.09375C16.9483 7.04766 14.453 11.25 9.21864 11.25ZM9.21864 2.5C8.50786 2.5 7.81304 2.71077 7.22206 3.10566C6.63107 3.50054 6.17045 4.06181 5.89844 4.71848C5.62644 5.37515 5.55527 6.09774 5.69394 6.79486C5.8326 7.49197 6.17488 8.13232 6.67747 8.63492C7.18007 9.13751 7.82041 9.47978 8.51753 9.61845C9.21465 9.75711 9.93723 9.68594 10.5939 9.41394C11.2506 9.14194 11.8118 8.68132 12.2067 8.09033C12.6016 7.49934 12.8124 6.80453 12.8124 6.09375C12.8111 5.14101 12.4321 4.22765 11.7584 3.55395C11.0847 2.88026 10.1714 2.50124 9.21864 2.5ZM9.21864 8.75C8.69328 8.75 8.17972 8.59421 7.7429 8.30234C7.30608 8.01047 6.96563 7.59562 6.76458 7.11025C6.56354 6.62489 6.51093 6.0908 6.61343 5.57554C6.71592 5.06028 6.9689 4.58698 7.34038 4.2155C7.71187 3.84401 8.18517 3.59103 8.70043 3.48854C9.21569 3.38605 9.74977 3.43865 10.2351 3.6397C10.7205 3.84074 11.1354 4.1812 11.4272 4.61802C11.7191 5.05483 11.8749 5.56839 11.8749 6.09375C11.8749 6.79823 11.595 7.47386 11.0969 7.972C10.5987 8.47015 9.92312 8.75 9.21864 8.75Z" fill="white"/>
</svg>
