<svg width="32" height="26" viewBox="0 0 32 26" fill="none" xmlns="http://www.w3.org/2000/svg">
<path d="M25.6493 10.9046V20.5849C25.6493 20.8222 25.5187 21.0415 25.3074 21.1605L24.9662 21.3519H24.9656L16.6838 26V15.9369L17.3676 15.5527H17.3683L25.6493 10.9046ZM24.9648 9.75408L16.6838 14.4021L16.0001 14.7856L15.3163 14.4021L7.03527 9.75407L15.3163 5.10601L15.6582 4.91393C15.8695 4.79561 16.1307 4.79561 16.3419 4.91393L16.6838 5.10601L24.9648 9.75408ZM15.3163 15.9368V26L7.03455 21.3519L6.69267 21.1605C6.48139 21.0415 6.3508 20.8222 6.3508 20.5849V10.9046L14.6318 15.5527H14.6325L15.3163 15.9368ZM16.6837 0.664678V3.6105C16.2427 3.45895 15.7586 3.45895 15.3162 3.6105V0.664678C15.3162 0.297109 15.6225 0 16 0C16.3774 0 16.6837 0.297109 16.6837 0.664678ZM31.9084 24.4813C31.7819 24.6947 31.5521 24.8136 31.3155 24.8136C31.1993 24.8136 31.0824 24.785 30.9744 24.7246L26.2988 22.0998C26.6543 21.8033 26.8964 21.3959 26.9819 20.9485L31.6581 23.5733C31.9849 23.7568 32.0971 24.1636 31.9084 24.4813ZM5.70259 22.0996L1.02566 24.7244C0.922016 24.7829 0.80429 24.8136 0.68446 24.8135C0.447874 24.8135 0.21813 24.6945 0.0916395 24.4812C-0.0970786 24.1634 0.0150528 23.7567 0.341896 23.5732L5.01813 20.9484C5.10429 21.3957 5.34634 21.8032 5.70259 22.0996Z" fill="#CAA05C"/>
</svg>
