<svg width="32" height="32" viewBox="0 0 32 32" fill="none" xmlns="http://www.w3.org/2000/svg">
<path d="M7.95645 17.2941C7.81438 17.2941 7.67811 17.3517 7.57765 17.4541C7.47718 17.5565 7.42074 17.6955 7.42074 17.8403V20.5714H24.5635V17.8403C24.5635 17.6955 24.5071 17.5565 24.4066 17.4541C24.3061 17.3517 24.1699 17.2941 24.0278 17.2941H7.95645ZM5.2779 29.8571H5.94754L6.70825 27.1261H5.2779V29.8571ZM7.42074 14.563V16.3C7.59253 16.2364 7.7737 16.2032 7.95645 16.2017H24.0278C24.2105 16.2032 24.3917 16.2364 24.5635 16.3V14.563C24.5624 13.7399 24.8227 12.9385 25.3056 12.2788C25.7884 11.6191 26.4678 11.1365 27.2421 10.9034V9.10084C27.2404 7.21811 26.5061 5.41299 25.2004 4.0817C23.8947 2.75041 22.1243 2.00174 20.2778 2H11.7064C9.85992 2.00174 8.08953 2.75041 6.78385 4.0817C5.47817 5.41299 4.74389 7.21811 4.74219 9.10084V10.9034C5.51645 11.1365 6.19583 11.6191 6.67868 12.2788C7.16153 12.9385 7.42187 13.7399 7.42074 14.563ZM26.0367 29.8571H26.7063V27.1261H25.276L26.0367 29.8571Z" fill="#CAA05C"/>
<path d="M30.9669 14.1369C30.8749 13.5534 30.6004 13.0158 30.1843 12.6043C29.7682 12.1929 29.2328 11.9296 28.658 11.8537C28.2799 11.8028 27.8954 11.8361 27.5311 11.9511C27.1667 12.0661 26.8311 12.2602 26.5473 12.5201C26.2634 12.7761 26.036 13.0905 25.8799 13.4426C25.7239 13.7947 25.6428 14.1765 25.642 14.5629V21.1176C25.642 21.2624 25.5855 21.4014 25.4851 21.5038C25.3846 21.6062 25.2483 21.6638 25.1062 21.6638H6.89207C6.74999 21.6638 6.61373 21.6062 6.51326 21.5038C6.4128 21.4014 6.35636 21.2624 6.35636 21.1176V14.5629C6.35555 14.1765 6.27445 13.7947 6.11839 13.4426C5.96234 13.0905 5.73488 12.7761 5.451 12.5201C4.96538 12.0758 4.3356 11.8306 3.68316 11.8318H3.6778C3.56494 11.831 3.45215 11.8383 3.3403 11.8537C2.70316 11.9357 2.11621 12.2486 1.68664 12.7354C1.25707 13.2221 1.01355 13.8502 1.00055 14.5048C0.987551 15.1595 1.20594 15.7971 1.61584 16.3011C2.02574 16.8052 2.5998 17.1421 3.23316 17.2503C3.35765 17.2731 3.47035 17.3397 3.55161 17.4385C3.63287 17.5374 3.67753 17.6621 3.6778 17.7911V25.4873C3.6778 25.6322 3.73424 25.7711 3.83471 25.8735C3.93517 25.976 4.07143 26.0335 4.21351 26.0335H27.7848C27.9269 26.0335 28.0631 25.976 28.1636 25.8735C28.2641 25.7711 28.3205 25.6322 28.3205 25.4873V17.7911C28.3208 17.6621 28.3654 17.5374 28.4467 17.4385C28.528 17.3397 28.6407 17.2731 28.7652 17.2503C29.4606 17.1344 30.0828 16.7423 30.4954 16.1599C30.9081 15.5774 31.0776 14.852 30.9669 14.1423V14.1369Z" fill="#CAA05C"/>
</svg>
